<svg id="dots" viewBox="0 0 10000 10000" xmlns="http://www.w3.org/2000/svg" style="background-color: transparent"><g transform="scale(100)">

<g transform="translate(15, 5)">
  <rect x="4.34" y="-0.16" width="0.32" height="0.32" fill="#ffffff"/>
<rect x="10.34" y="-0.16" width="0.32" height="0.32" fill="#ffffff"/>
<rect x="11.34" y="-0.16" width="0.32" height="0.32" fill="#ffffff"/>
<rect x="12.34" y="-0.16" width="0.32" height="0.32" fill="#ffffff"/>
<rect x="13.34" y="-0.16" width="0.32" height="0.32" fill="#ffffff"/>
<rect x="15.34" y="-0.16" width="0.32" height="0.32" fill="#ffffff"/>
<rect x="17.34" y="-0.16" width="0.32" height="0.32" fill="#ffffff"/>
<rect x="18.34" y="-0.16" width="0.32" height="0.32" fill="#ffffff"/>
<rect x="19.34" y="-0.16" width="0.32" height="0.32" fill="#ffffff"/>
<rect x="24.34" y="-0.16" width="0.32" height="0.32" fill="#ffffff"/>
<rect x="25.34" y="-0.16" width="0.32" height="0.32" fill="#ffffff"/>
<rect x="26.34" y="-0.16" width="0.32" height="0.32" fill="#ffffff"/>
<rect x="27.34" y="-0.16" width="0.32" height="0.32" fill="#ffffff"/>
<rect x="28.34" y="-0.16" width="0.32" height="0.32" fill="#ffffff"/>
<rect x="38.34" y="-0.16" width="0.32" height="0.32" fill="#ffffff"/>
<rect x="46.34" y="-0.16" width="0.32" height="0.32" fill="#ffffff"/>
<rect x="47.34" y="-0.16" width="0.32" height="0.32" fill="#ffffff"/>
<rect x="48.34" y="-0.16" width="0.32" height="0.32" fill="#ffffff"/>
<rect x="49.34" y="-0.16" width="0.32" height="0.32" fill="#ffffff"/>
<rect x="50.34" y="-0.16" width="0.32" height="0.32" fill="#ffffff"/>
<rect x="51.34" y="-0.16" width="0.32" height="0.32" fill="#ffffff"/>
<rect x="52.34" y="-0.16" width="0.32" height="0.32" fill="#ffffff"/>
<rect x="53.34" y="-0.16" width="0.32" height="0.32" fill="#ffffff"/>
<rect x="54.34" y="-0.16" width="0.32" height="0.32" fill="#ffffff"/>
<rect x="55.34" y="-0.16" width="0.32" height="0.32" fill="#ffffff"/>
<rect x="56.34" y="-0.16" width="0.32" height="0.32" fill="#ffffff"/>
<rect x="57.34" y="-0.16" width="0.32" height="0.32" fill="#ffffff"/>
<rect x="58.34" y="-0.16" width="0.32" height="0.32" fill="#ffffff"/>
<rect x="59.34" y="-0.16" width="0.32" height="0.32" fill="#ffffff"/>
<rect x="60.34" y="-0.16" width="0.32" height="0.32" fill="#ffffff"/>
<rect x="61.34" y="-0.16" width="0.32" height="0.32" fill="#ffffff"/>
<rect x="2.84" y="0.7060254037844386" width="0.32" height="0.32" fill="#ffffff"/>
<rect x="3.84" y="0.7060254037844386" width="0.32" height="0.32" fill="#ffffff"/>
<rect x="4.84" y="0.7060254037844386" width="0.32" height="0.32" fill="#ffffff"/>
<rect x="5.84" y="0.7060254037844386" width="0.32" height="0.32" fill="#ffffff"/>
<rect x="6.84" y="0.7060254037844386" width="0.32" height="0.32" fill="#ffffff"/>
<rect x="8.84" y="0.7060254037844386" width="0.32" height="0.32" fill="#ffffff"/>
<rect x="9.84" y="0.7060254037844386" width="0.32" height="0.32" fill="#ffffff"/>
<rect x="10.84" y="0.7060254037844386" width="0.32" height="0.32" fill="#ffffff"/>
<rect x="11.84" y="0.7060254037844386" width="0.32" height="0.32" fill="#ffffff"/>
<rect x="12.84" y="0.7060254037844386" width="0.32" height="0.32" fill="#ffffff"/>
<rect x="13.84" y="0.7060254037844386" width="0.32" height="0.32" fill="#ffffff"/>
<rect x="14.84" y="0.7060254037844386" width="0.32" height="0.32" fill="#ffffff"/>
<rect x="15.84" y="0.7060254037844386" width="0.32" height="0.32" fill="#ffffff"/>
<rect x="17.84" y="0.7060254037844386" width="0.32" height="0.32" fill="#ffffff"/>
<rect x="19.84" y="0.7060254037844386" width="0.32" height="0.32" fill="#ffffff"/>
<rect x="23.84" y="0.7060254037844386" width="0.32" height="0.32" fill="#ffffff"/>
<rect x="24.84" y="0.7060254037844386" width="0.32" height="0.32" fill="#ffffff"/>
<rect x="25.84" y="0.7060254037844386" width="0.32" height="0.32" fill="#ffffff"/>
<rect x="26.84" y="0.7060254037844386" width="0.32" height="0.32" fill="#ffffff"/>
<rect x="27.84" y="0.7060254037844386" width="0.32" height="0.32" fill="#ffffff"/>
<rect x="36.84" y="0.7060254037844386" width="0.32" height="0.32" fill="#ffffff"/>
<rect x="37.84" y="0.7060254037844386" width="0.32" height="0.32" fill="#ffffff"/>
<rect x="38.84" y="0.7060254037844386" width="0.32" height="0.32" fill="#ffffff"/>
<rect x="44.84" y="0.7060254037844386" width="0.32" height="0.32" fill="#ffffff"/>
<rect x="46.84" y="0.7060254037844386" width="0.32" height="0.32" fill="#ffffff"/>
<rect x="47.84" y="0.7060254037844386" width="0.32" height="0.32" fill="#ffffff"/>
<rect x="48.84" y="0.7060254037844386" width="0.32" height="0.32" fill="#ffffff"/>
<rect x="49.84" y="0.7060254037844386" width="0.32" height="0.32" fill="#ffffff"/>
<rect x="50.84" y="0.7060254037844386" width="0.32" height="0.32" fill="#ffffff"/>
<rect x="51.84" y="0.7060254037844386" width="0.32" height="0.32" fill="#ffffff"/>
<rect x="52.84" y="0.7060254037844386" width="0.32" height="0.32" fill="#ffffff"/>
<rect x="53.84" y="0.7060254037844386" width="0.32" height="0.32" fill="#ffffff"/>
<rect x="54.84" y="0.7060254037844386" width="0.32" height="0.32" fill="#ffffff"/>
<rect x="55.84" y="0.7060254037844386" width="0.32" height="0.32" fill="#ffffff"/>
<rect x="56.84" y="0.7060254037844386" width="0.32" height="0.32" fill="#ffffff"/>
<rect x="57.84" y="0.7060254037844386" width="0.32" height="0.32" fill="#ffffff"/>
<rect x="58.84" y="0.7060254037844386" width="0.32" height="0.32" fill="#ffffff"/>
<rect x="59.84" y="0.7060254037844386" width="0.32" height="0.32" fill="#ffffff"/>
<rect x="60.84" y="0.7060254037844386" width="0.32" height="0.32" fill="#ffffff"/>
<rect x="61.84" y="0.7060254037844386" width="0.32" height="0.32" fill="#ffffff"/>
<rect x="62.84" y="0.7060254037844386" width="0.32" height="0.32" fill="#ffffff"/>
<rect x="63.84" y="0.7060254037844386" width="0.32" height="0.32" fill="#ffffff"/>
<rect x="65.84" y="0.7060254037844386" width="0.32" height="0.32" fill="#ffffff"/>
<rect x="3.34" y="1.5720508075688773" width="0.32" height="0.32" fill="#ffffff"/>
<rect x="4.34" y="1.5720508075688773" width="0.32" height="0.32" fill="#ffffff"/>
<rect x="5.34" y="1.5720508075688773" width="0.32" height="0.32" fill="#ffffff"/>
<rect x="6.34" y="1.5720508075688773" width="0.32" height="0.32" fill="#ffffff"/>
<rect x="7.34" y="1.5720508075688773" width="0.32" height="0.32" fill="#ffffff"/>
<rect x="8.34" y="1.5720508075688773" width="0.32" height="0.32" fill="#ffffff"/>
<rect x="9.34" y="1.5720508075688773" width="0.32" height="0.32" fill="#ffffff"/>
<rect x="10.34" y="1.5720508075688773" width="0.32" height="0.32" fill="#ffffff"/>
<rect x="11.34" y="1.5720508075688773" width="0.32" height="0.32" fill="#ffffff"/>
<rect x="13.34" y="1.5720508075688773" width="0.32" height="0.32" fill="#ffffff"/>
<rect x="15.34" y="1.5720508075688773" width="0.32" height="0.32" fill="#ffffff"/>
<rect x="16.34" y="1.5720508075688773" width="0.32" height="0.32" fill="#ffffff"/>
<rect x="17.34" y="1.5720508075688773" width="0.32" height="0.32" fill="#ffffff"/>
<rect x="20.34" y="1.5720508075688773" width="0.32" height="0.32" fill="#ffffff"/>
<rect x="23.34" y="1.5720508075688773" width="0.32" height="0.32" fill="#ffffff"/>
<rect x="24.34" y="1.5720508075688773" width="0.32" height="0.32" fill="#ffffff"/>
<rect x="25.34" y="1.5720508075688773" width="0.32" height="0.32" fill="#ffffff"/>
<rect x="26.34" y="1.5720508075688773" width="0.32" height="0.32" fill="#ffffff"/>
<rect x="36.34" y="1.5720508075688773" width="0.32" height="0.32" fill="#ffffff"/>
<rect x="37.34" y="1.5720508075688773" width="0.32" height="0.32" fill="#ffffff"/>
<rect x="38.34" y="1.5720508075688773" width="0.32" height="0.32" fill="#ffffff"/>
<rect x="39.34" y="1.5720508075688773" width="0.32" height="0.32" fill="#ffffff"/>
<rect x="40.34" y="1.5720508075688773" width="0.32" height="0.32" fill="#ffffff"/>
<rect x="43.34" y="1.5720508075688773" width="0.32" height="0.32" fill="#ffffff"/>
<rect x="44.34" y="1.5720508075688773" width="0.32" height="0.32" fill="#ffffff"/>
<rect x="45.34" y="1.5720508075688773" width="0.32" height="0.32" fill="#ffffff"/>
<rect x="46.34" y="1.5720508075688773" width="0.32" height="0.32" fill="#ffffff"/>
<rect x="48.34" y="1.5720508075688773" width="0.32" height="0.32" fill="#ffffff"/>
<rect x="49.34" y="1.5720508075688773" width="0.32" height="0.32" fill="#ffffff"/>
<rect x="50.34" y="1.5720508075688773" width="0.32" height="0.32" fill="#ffffff"/>
<rect x="51.34" y="1.5720508075688773" width="0.32" height="0.32" fill="#ffffff"/>
<rect x="52.34" y="1.5720508075688773" width="0.32" height="0.32" fill="#ffffff"/>
<rect x="53.34" y="1.5720508075688773" width="0.32" height="0.32" fill="#ffffff"/>
<rect x="54.34" y="1.5720508075688773" width="0.32" height="0.32" fill="#ffffff"/>
<rect x="55.34" y="1.5720508075688773" width="0.32" height="0.32" fill="#ffffff"/>
<rect x="56.34" y="1.5720508075688773" width="0.32" height="0.32" fill="#ffffff"/>
<rect x="57.34" y="1.5720508075688773" width="0.32" height="0.32" fill="#ffffff"/>
<rect x="58.34" y="1.5720508075688773" width="0.32" height="0.32" fill="#ffffff"/>
<rect x="59.34" y="1.5720508075688773" width="0.32" height="0.32" fill="#ffffff"/>
<rect x="60.34" y="1.5720508075688773" width="0.32" height="0.32" fill="#ffffff"/>
<rect x="61.34" y="1.5720508075688773" width="0.32" height="0.32" fill="#ffffff"/>
<rect x="62.34" y="1.5720508075688773" width="0.32" height="0.32" fill="#ffffff"/>
<rect x="63.34" y="1.5720508075688773" width="0.32" height="0.32" fill="#ffffff"/>
<rect x="64.34" y="1.5720508075688773" width="0.32" height="0.32" fill="#ffffff"/>
<rect x="65.34" y="1.5720508075688773" width="0.32" height="0.32" fill="#ffffff"/>
<rect x="66.34" y="1.5720508075688773" width="0.32" height="0.32" fill="#ffffff"/>
<rect x="0.84" y="2.438076211353316" width="0.32" height="0.32" fill="#ffffff"/>
<rect x="2.84" y="2.438076211353316" width="0.32" height="0.32" fill="#ffffff"/>
<rect x="3.84" y="2.438076211353316" width="0.32" height="0.32" fill="#ffffff"/>
<rect x="4.84" y="2.438076211353316" width="0.32" height="0.32" fill="#ffffff"/>
<rect x="5.84" y="2.438076211353316" width="0.32" height="0.32" fill="#ffffff"/>
<rect x="6.84" y="2.438076211353316" width="0.32" height="0.32" fill="#ffffff"/>
<rect x="7.84" y="2.438076211353316" width="0.32" height="0.32" fill="#ffffff"/>
<rect x="8.84" y="2.438076211353316" width="0.32" height="0.32" fill="#ffffff"/>
<rect x="9.84" y="2.438076211353316" width="0.32" height="0.32" fill="#ffffff"/>
<rect x="10.84" y="2.438076211353316" width="0.32" height="0.32" fill="#ffffff"/>
<rect x="11.84" y="2.438076211353316" width="0.32" height="0.32" fill="#ffffff"/>
<rect x="12.84" y="2.438076211353316" width="0.32" height="0.32" fill="#ffffff"/>
<rect x="13.84" y="2.438076211353316" width="0.32" height="0.32" fill="#ffffff"/>
<rect x="14.84" y="2.438076211353316" width="0.32" height="0.32" fill="#ffffff"/>
<rect x="15.84" y="2.438076211353316" width="0.32" height="0.32" fill="#ffffff"/>
<rect x="16.84" y="2.438076211353316" width="0.32" height="0.32" fill="#ffffff"/>
<rect x="19.84" y="2.438076211353316" width="0.32" height="0.32" fill="#ffffff"/>
<rect x="23.84" y="2.438076211353316" width="0.32" height="0.32" fill="#ffffff"/>
<rect x="24.84" y="2.438076211353316" width="0.32" height="0.32" fill="#ffffff"/>
<rect x="25.84" y="2.438076211353316" width="0.32" height="0.32" fill="#ffffff"/>
<rect x="29.84" y="2.438076211353316" width="0.32" height="0.32" fill="#ffffff"/>
<rect x="35.84" y="2.438076211353316" width="0.32" height="0.32" fill="#ffffff"/>
<rect x="36.84" y="2.438076211353316" width="0.32" height="0.32" fill="#ffffff"/>
<rect x="38.84" y="2.438076211353316" width="0.32" height="0.32" fill="#ffffff"/>
<rect x="41.84" y="2.438076211353316" width="0.32" height="0.32" fill="#ffffff"/>
<rect x="42.84" y="2.438076211353316" width="0.32" height="0.32" fill="#ffffff"/>
<rect x="43.84" y="2.438076211353316" width="0.32" height="0.32" fill="#ffffff"/>
<rect x="44.84" y="2.438076211353316" width="0.32" height="0.32" fill="#ffffff"/>
<rect x="45.84" y="2.438076211353316" width="0.32" height="0.32" fill="#ffffff"/>
<rect x="46.84" y="2.438076211353316" width="0.32" height="0.32" fill="#ffffff"/>
<rect x="47.84" y="2.438076211353316" width="0.32" height="0.32" fill="#ffffff"/>
<rect x="48.84" y="2.438076211353316" width="0.32" height="0.32" fill="#ffffff"/>
<rect x="49.84" y="2.438076211353316" width="0.32" height="0.32" fill="#ffffff"/>
<rect x="50.84" y="2.438076211353316" width="0.32" height="0.32" fill="#ffffff"/>
<rect x="51.84" y="2.438076211353316" width="0.32" height="0.32" fill="#ffffff"/>
<rect x="52.84" y="2.438076211353316" width="0.32" height="0.32" fill="#ffffff"/>
<rect x="53.84" y="2.438076211353316" width="0.32" height="0.32" fill="#ffffff"/>
<rect x="54.84" y="2.438076211353316" width="0.32" height="0.32" fill="#ffffff"/>
<rect x="55.84" y="2.438076211353316" width="0.32" height="0.32" fill="#ffffff"/>
<rect x="56.84" y="2.438076211353316" width="0.32" height="0.32" fill="#ffffff"/>
<rect x="57.84" y="2.438076211353316" width="0.32" height="0.32" fill="#ffffff"/>
<rect x="58.84" y="2.438076211353316" width="0.32" height="0.32" fill="#ffffff"/>
<rect x="59.84" y="2.438076211353316" width="0.32" height="0.32" fill="#ffffff"/>
<rect x="60.84" y="2.438076211353316" width="0.32" height="0.32" fill="#ffffff"/>
<rect x="61.84" y="2.438076211353316" width="0.32" height="0.32" fill="#ffffff"/>
<rect x="62.84" y="2.438076211353316" width="0.32" height="0.32" fill="#ffffff"/>
<rect x="63.84" y="2.438076211353316" width="0.32" height="0.32" fill="#ffffff"/>
<rect x="64.84" y="2.438076211353316" width="0.32" height="0.32" fill="#ffffff"/>
<rect x="65.84" y="2.438076211353316" width="0.32" height="0.32" fill="#ffffff"/>
<rect x="3.34" y="3.3041016151377542" width="0.32" height="0.32" fill="#ffffff"/>
<rect x="4.34" y="3.3041016151377542" width="0.32" height="0.32" fill="#ffffff"/>
<rect x="5.34" y="3.3041016151377542" width="0.32" height="0.32" fill="#ffffff"/>
<rect x="6.34" y="3.3041016151377542" width="0.32" height="0.32" fill="#ffffff"/>
<rect x="7.34" y="3.3041016151377542" width="0.32" height="0.32" fill="#ffffff"/>
<rect x="8.34" y="3.3041016151377542" width="0.32" height="0.32" fill="#ffffff"/>
<rect x="9.34" y="3.3041016151377542" width="0.32" height="0.32" fill="#ffffff"/>
<rect x="10.34" y="3.3041016151377542" width="0.32" height="0.32" fill="#ffffff"/>
<rect x="11.34" y="3.3041016151377542" width="0.32" height="0.32" fill="#ffffff"/>
<rect x="12.34" y="3.3041016151377542" width="0.32" height="0.32" fill="#ffffff"/>
<rect x="13.34" y="3.3041016151377542" width="0.32" height="0.32" fill="#ffffff"/>
<rect x="14.34" y="3.3041016151377542" width="0.32" height="0.32" fill="#ffffff"/>
<rect x="15.34" y="3.3041016151377542" width="0.32" height="0.32" fill="#ffffff"/>
<rect x="16.34" y="3.3041016151377542" width="0.32" height="0.32" fill="#ffffff"/>
<rect x="17.34" y="3.3041016151377542" width="0.32" height="0.32" fill="#ffffff"/>
<rect x="20.34" y="3.3041016151377542" width="0.32" height="0.32" fill="#ffffff"/>
<rect x="24.34" y="3.3041016151377542" width="0.32" height="0.32" fill="#ffffff"/>
<rect x="25.34" y="3.3041016151377542" width="0.32" height="0.32" fill="#ffffff"/>
<rect x="29.34" y="3.3041016151377542" width="0.32" height="0.32" fill="#ffffff"/>
<rect x="35.34" y="3.3041016151377542" width="0.32" height="0.32" fill="#ffffff"/>
<rect x="36.34" y="3.3041016151377542" width="0.32" height="0.32" fill="#ffffff"/>
<rect x="38.34" y="3.3041016151377542" width="0.32" height="0.32" fill="#ffffff"/>
<rect x="39.34" y="3.3041016151377542" width="0.32" height="0.32" fill="#ffffff"/>
<rect x="40.34" y="3.3041016151377542" width="0.32" height="0.32" fill="#ffffff"/>
<rect x="41.34" y="3.3041016151377542" width="0.32" height="0.32" fill="#ffffff"/>
<rect x="42.34" y="3.3041016151377542" width="0.32" height="0.32" fill="#ffffff"/>
<rect x="43.34" y="3.3041016151377542" width="0.32" height="0.32" fill="#ffffff"/>
<rect x="44.34" y="3.3041016151377542" width="0.32" height="0.32" fill="#ffffff"/>
<rect x="45.34" y="3.3041016151377542" width="0.32" height="0.32" fill="#ffffff"/>
<rect x="46.34" y="3.3041016151377542" width="0.32" height="0.32" fill="#ffffff"/>
<rect x="47.34" y="3.3041016151377542" width="0.32" height="0.32" fill="#ffffff"/>
<rect x="48.34" y="3.3041016151377542" width="0.32" height="0.32" fill="#ffffff"/>
<rect x="49.34" y="3.3041016151377542" width="0.32" height="0.32" fill="#ffffff"/>
<rect x="50.34" y="3.3041016151377542" width="0.32" height="0.32" fill="#ffffff"/>
<rect x="51.34" y="3.3041016151377542" width="0.32" height="0.32" fill="#ffffff"/>
<rect x="52.34" y="3.3041016151377542" width="0.32" height="0.32" fill="#ffffff"/>
<rect x="53.34" y="3.3041016151377542" width="0.32" height="0.32" fill="#ffffff"/>
<rect x="54.34" y="3.3041016151377542" width="0.32" height="0.32" fill="#ffffff"/>
<rect x="55.34" y="3.3041016151377542" width="0.32" height="0.32" fill="#ffffff"/>
<rect x="56.34" y="3.3041016151377542" width="0.32" height="0.32" fill="#ffffff"/>
<rect x="57.34" y="3.3041016151377542" width="0.32" height="0.32" fill="#ffffff"/>
<rect x="58.34" y="3.3041016151377542" width="0.32" height="0.32" fill="#ffffff"/>
<rect x="59.34" y="3.3041016151377542" width="0.32" height="0.32" fill="#ffffff"/>
<rect x="60.34" y="3.3041016151377542" width="0.32" height="0.32" fill="#ffffff"/>
<rect x="61.34" y="3.3041016151377542" width="0.32" height="0.32" fill="#ffffff"/>
<rect x="62.34" y="3.3041016151377542" width="0.32" height="0.32" fill="#ffffff"/>
<rect x="63.34" y="3.3041016151377542" width="0.32" height="0.32" fill="#ffffff"/>
<rect x="64.34" y="3.3041016151377542" width="0.32" height="0.32" fill="#ffffff"/>
<rect x="65.34" y="3.3041016151377542" width="0.32" height="0.32" fill="#ffffff"/>
<rect x="66.34" y="3.3041016151377542" width="0.32" height="0.32" fill="#ffffff"/>
<rect x="2.84" y="4.170127018922193" width="0.32" height="0.32" fill="#ffffff"/>
<rect x="3.84" y="4.170127018922193" width="0.32" height="0.32" fill="#ffffff"/>
<rect x="4.84" y="4.170127018922193" width="0.32" height="0.32" fill="#ffffff"/>
<rect x="5.84" y="4.170127018922193" width="0.32" height="0.32" fill="#ffffff"/>
<rect x="6.84" y="4.170127018922193" width="0.32" height="0.32" fill="#ffffff"/>
<rect x="7.84" y="4.170127018922193" width="0.32" height="0.32" fill="#ffffff"/>
<rect x="8.84" y="4.170127018922193" width="0.32" height="0.32" fill="#ffffff"/>
<rect x="9.84" y="4.170127018922193" width="0.32" height="0.32" fill="#ffffff"/>
<rect x="10.84" y="4.170127018922193" width="0.32" height="0.32" fill="#ffffff"/>
<rect x="11.84" y="4.170127018922193" width="0.32" height="0.32" fill="#ffffff"/>
<rect x="12.84" y="4.170127018922193" width="0.32" height="0.32" fill="#ffffff"/>
<rect x="13.84" y="4.170127018922193" width="0.32" height="0.32" fill="#ffffff"/>
<rect x="14.84" y="4.170127018922193" width="0.32" height="0.32" fill="#ffffff"/>
<rect x="15.84" y="4.170127018922193" width="0.32" height="0.32" fill="#ffffff"/>
<rect x="18.84" y="4.170127018922193" width="0.32" height="0.32" fill="#ffffff"/>
<rect x="24.84" y="4.170127018922193" width="0.32" height="0.32" fill="#ffffff"/>
<rect x="34.84" y="4.170127018922193" width="0.32" height="0.32" fill="#ffffff"/>
<rect x="35.84" y="4.170127018922193" width="0.32" height="0.32" fill="#ffffff"/>
<rect x="37.84" y="4.170127018922193" width="0.32" height="0.32" fill="#ffffff"/>
<rect x="38.84" y="4.170127018922193" width="0.32" height="0.32" fill="#ffffff"/>
<rect x="39.84" y="4.170127018922193" width="0.32" height="0.32" fill="#ffffff"/>
<rect x="40.84" y="4.170127018922193" width="0.32" height="0.32" fill="#ffffff"/>
<rect x="41.84" y="4.170127018922193" width="0.32" height="0.32" fill="#ffffff"/>
<rect x="42.84" y="4.170127018922193" width="0.32" height="0.32" fill="#ffffff"/>
<rect x="43.84" y="4.170127018922193" width="0.32" height="0.32" fill="#ffffff"/>
<rect x="44.84" y="4.170127018922193" width="0.32" height="0.32" fill="#ffffff"/>
<rect x="45.84" y="4.170127018922193" width="0.32" height="0.32" fill="#ffffff"/>
<rect x="46.84" y="4.170127018922193" width="0.32" height="0.32" fill="#ffffff"/>
<rect x="47.84" y="4.170127018922193" width="0.32" height="0.32" fill="#ffffff"/>
<rect x="48.84" y="4.170127018922193" width="0.32" height="0.32" fill="#ffffff"/>
<rect x="49.84" y="4.170127018922193" width="0.32" height="0.32" fill="#ffffff"/>
<rect x="50.84" y="4.170127018922193" width="0.32" height="0.32" fill="#ffffff"/>
<rect x="51.84" y="4.170127018922193" width="0.32" height="0.32" fill="#ffffff"/>
<rect x="52.84" y="4.170127018922193" width="0.32" height="0.32" fill="#ffffff"/>
<rect x="53.84" y="4.170127018922193" width="0.32" height="0.32" fill="#ffffff"/>
<rect x="54.84" y="4.170127018922193" width="0.32" height="0.32" fill="#ffffff"/>
<rect x="55.84" y="4.170127018922193" width="0.32" height="0.32" fill="#ffffff"/>
<rect x="56.84" y="4.170127018922193" width="0.32" height="0.32" fill="#ffffff"/>
<rect x="57.84" y="4.170127018922193" width="0.32" height="0.32" fill="#ffffff"/>
<rect x="58.84" y="4.170127018922193" width="0.32" height="0.32" fill="#ffffff"/>
<rect x="59.84" y="4.170127018922193" width="0.32" height="0.32" fill="#ffffff"/>
<rect x="60.84" y="4.170127018922193" width="0.32" height="0.32" fill="#ffffff"/>
<rect x="61.84" y="4.170127018922193" width="0.32" height="0.32" fill="#ffffff"/>
<rect x="62.84" y="4.170127018922193" width="0.32" height="0.32" fill="#ffffff"/>
<rect x="64.84" y="4.170127018922193" width="0.32" height="0.32" fill="#ffffff"/>
<rect x="65.84" y="4.170127018922193" width="0.32" height="0.32" fill="#ffffff"/>
<rect x="3.34" y="5.036152422706632" width="0.32" height="0.32" fill="#ffffff"/>
<rect x="4.34" y="5.036152422706632" width="0.32" height="0.32" fill="#ffffff"/>
<rect x="7.34" y="5.036152422706632" width="0.32" height="0.32" fill="#ffffff"/>
<rect x="8.34" y="5.036152422706632" width="0.32" height="0.32" fill="#ffffff"/>
<rect x="9.34" y="5.036152422706632" width="0.32" height="0.32" fill="#ffffff"/>
<rect x="10.34" y="5.036152422706632" width="0.32" height="0.32" fill="#ffffff"/>
<rect x="11.34" y="5.036152422706632" width="0.32" height="0.32" fill="#ffffff"/>
<rect x="12.34" y="5.036152422706632" width="0.32" height="0.32" fill="#ffffff"/>
<rect x="13.34" y="5.036152422706632" width="0.32" height="0.32" fill="#ffffff"/>
<rect x="14.34" y="5.036152422706632" width="0.32" height="0.32" fill="#ffffff"/>
<rect x="15.34" y="5.036152422706632" width="0.32" height="0.32" fill="#ffffff"/>
<rect x="19.34" y="5.036152422706632" width="0.32" height="0.32" fill="#ffffff"/>
<rect x="21.34" y="5.036152422706632" width="0.32" height="0.32" fill="#ffffff"/>
<rect x="34.34" y="5.036152422706632" width="0.32" height="0.32" fill="#ffffff"/>
<rect x="35.34" y="5.036152422706632" width="0.32" height="0.32" fill="#ffffff"/>
<rect x="36.34" y="5.036152422706632" width="0.32" height="0.32" fill="#ffffff"/>
<rect x="39.34" y="5.036152422706632" width="0.32" height="0.32" fill="#ffffff"/>
<rect x="40.34" y="5.036152422706632" width="0.32" height="0.32" fill="#ffffff"/>
<rect x="41.34" y="5.036152422706632" width="0.32" height="0.32" fill="#ffffff"/>
<rect x="42.34" y="5.036152422706632" width="0.32" height="0.32" fill="#ffffff"/>
<rect x="43.34" y="5.036152422706632" width="0.32" height="0.32" fill="#ffffff"/>
<rect x="44.34" y="5.036152422706632" width="0.32" height="0.32" fill="#ffffff"/>
<rect x="45.34" y="5.036152422706632" width="0.32" height="0.32" fill="#ffffff"/>
<rect x="46.34" y="5.036152422706632" width="0.32" height="0.32" fill="#ffffff"/>
<rect x="47.34" y="5.036152422706632" width="0.32" height="0.32" fill="#ffffff"/>
<rect x="48.34" y="5.036152422706632" width="0.32" height="0.32" fill="#ffffff"/>
<rect x="49.34" y="5.036152422706632" width="0.32" height="0.32" fill="#ffffff"/>
<rect x="50.34" y="5.036152422706632" width="0.32" height="0.32" fill="#ffffff"/>
<rect x="51.34" y="5.036152422706632" width="0.32" height="0.32" fill="#ffffff"/>
<rect x="52.34" y="5.036152422706632" width="0.32" height="0.32" fill="#ffffff"/>
<rect x="53.34" y="5.036152422706632" width="0.32" height="0.32" fill="#ffffff"/>
<rect x="54.34" y="5.036152422706632" width="0.32" height="0.32" fill="#ffffff"/>
<rect x="55.34" y="5.036152422706632" width="0.32" height="0.32" fill="#ffffff"/>
<rect x="56.34" y="5.036152422706632" width="0.32" height="0.32" fill="#ffffff"/>
<rect x="57.34" y="5.036152422706632" width="0.32" height="0.32" fill="#ffffff"/>
<rect x="58.34" y="5.036152422706632" width="0.32" height="0.32" fill="#ffffff"/>
<rect x="59.34" y="5.036152422706632" width="0.32" height="0.32" fill="#ffffff"/>
<rect x="60.34" y="5.036152422706632" width="0.32" height="0.32" fill="#ffffff"/>
<rect x="61.34" y="5.036152422706632" width="0.32" height="0.32" fill="#ffffff"/>
<rect x="3.84" y="5.90217782649107" width="0.32" height="0.32" fill="#ffffff"/>
<rect x="8.84" y="5.90217782649107" width="0.32" height="0.32" fill="#ffffff"/>
<rect x="9.84" y="5.90217782649107" width="0.32" height="0.32" fill="#ffffff"/>
<rect x="10.84" y="5.90217782649107" width="0.32" height="0.32" fill="#ffffff"/>
<rect x="11.84" y="5.90217782649107" width="0.32" height="0.32" fill="#ffffff"/>
<rect x="12.84" y="5.90217782649107" width="0.32" height="0.32" fill="#ffffff"/>
<rect x="13.84" y="5.90217782649107" width="0.32" height="0.32" fill="#ffffff"/>
<rect x="14.84" y="5.90217782649107" width="0.32" height="0.32" fill="#ffffff"/>
<rect x="15.84" y="5.90217782649107" width="0.32" height="0.32" fill="#ffffff"/>
<rect x="19.84" y="5.90217782649107" width="0.32" height="0.32" fill="#ffffff"/>
<rect x="20.84" y="5.90217782649107" width="0.32" height="0.32" fill="#ffffff"/>
<rect x="32.84" y="5.90217782649107" width="0.32" height="0.32" fill="#ffffff"/>
<rect x="35.84" y="5.90217782649107" width="0.32" height="0.32" fill="#ffffff"/>
<rect x="36.84" y="5.90217782649107" width="0.32" height="0.32" fill="#ffffff"/>
<rect x="38.84" y="5.90217782649107" width="0.32" height="0.32" fill="#ffffff"/>
<rect x="39.84" y="5.90217782649107" width="0.32" height="0.32" fill="#ffffff"/>
<rect x="40.84" y="5.90217782649107" width="0.32" height="0.32" fill="#ffffff"/>
<rect x="41.84" y="5.90217782649107" width="0.32" height="0.32" fill="#ffffff"/>
<rect x="42.84" y="5.90217782649107" width="0.32" height="0.32" fill="#ffffff"/>
<rect x="43.84" y="5.90217782649107" width="0.32" height="0.32" fill="#ffffff"/>
<rect x="44.84" y="5.90217782649107" width="0.32" height="0.32" fill="#ffffff"/>
<rect x="45.84" y="5.90217782649107" width="0.32" height="0.32" fill="#ffffff"/>
<rect x="46.84" y="5.90217782649107" width="0.32" height="0.32" fill="#ffffff"/>
<rect x="47.84" y="5.90217782649107" width="0.32" height="0.32" fill="#ffffff"/>
<rect x="48.84" y="5.90217782649107" width="0.32" height="0.32" fill="#ffffff"/>
<rect x="49.84" y="5.90217782649107" width="0.32" height="0.32" fill="#ffffff"/>
<rect x="50.84" y="5.90217782649107" width="0.32" height="0.32" fill="#ffffff"/>
<rect x="51.84" y="5.90217782649107" width="0.32" height="0.32" fill="#ffffff"/>
<rect x="52.84" y="5.90217782649107" width="0.32" height="0.32" fill="#ffffff"/>
<rect x="53.84" y="5.90217782649107" width="0.32" height="0.32" fill="#ffffff"/>
<rect x="54.84" y="5.90217782649107" width="0.32" height="0.32" fill="#ffffff"/>
<rect x="55.84" y="5.90217782649107" width="0.32" height="0.32" fill="#ffffff"/>
<rect x="56.84" y="5.90217782649107" width="0.32" height="0.32" fill="#ffffff"/>
<rect x="57.84" y="5.90217782649107" width="0.32" height="0.32" fill="#ffffff"/>
<rect x="58.84" y="5.90217782649107" width="0.32" height="0.32" fill="#ffffff"/>
<rect x="62.84" y="5.90217782649107" width="0.32" height="0.32" fill="#ffffff"/>
<rect x="63.84" y="5.90217782649107" width="0.32" height="0.32" fill="#ffffff"/>
<rect x="9.34" y="6.768203230275509" width="0.32" height="0.32" fill="#ffffff"/>
<rect x="10.34" y="6.768203230275509" width="0.32" height="0.32" fill="#ffffff"/>
<rect x="11.34" y="6.768203230275509" width="0.32" height="0.32" fill="#ffffff"/>
<rect x="12.34" y="6.768203230275509" width="0.32" height="0.32" fill="#ffffff"/>
<rect x="13.34" y="6.768203230275509" width="0.32" height="0.32" fill="#ffffff"/>
<rect x="14.34" y="6.768203230275509" width="0.32" height="0.32" fill="#ffffff"/>
<rect x="15.34" y="6.768203230275509" width="0.32" height="0.32" fill="#ffffff"/>
<rect x="16.34" y="6.768203230275509" width="0.32" height="0.32" fill="#ffffff"/>
<rect x="17.34" y="6.768203230275509" width="0.32" height="0.32" fill="#ffffff"/>
<rect x="19.34" y="6.768203230275509" width="0.32" height="0.32" fill="#ffffff"/>
<rect x="20.34" y="6.768203230275509" width="0.32" height="0.32" fill="#ffffff"/>
<rect x="21.34" y="6.768203230275509" width="0.32" height="0.32" fill="#ffffff"/>
<rect x="22.34" y="6.768203230275509" width="0.32" height="0.32" fill="#ffffff"/>
<rect x="37.34" y="6.768203230275509" width="0.32" height="0.32" fill="#ffffff"/>
<rect x="38.34" y="6.768203230275509" width="0.32" height="0.32" fill="#ffffff"/>
<rect x="39.34" y="6.768203230275509" width="0.32" height="0.32" fill="#ffffff"/>
<rect x="40.34" y="6.768203230275509" width="0.32" height="0.32" fill="#ffffff"/>
<rect x="41.34" y="6.768203230275509" width="0.32" height="0.32" fill="#ffffff"/>
<rect x="42.34" y="6.768203230275509" width="0.32" height="0.32" fill="#ffffff"/>
<rect x="43.34" y="6.768203230275509" width="0.32" height="0.32" fill="#ffffff"/>
<rect x="44.34" y="6.768203230275509" width="0.32" height="0.32" fill="#ffffff"/>
<rect x="45.34" y="6.768203230275509" width="0.32" height="0.32" fill="#ffffff"/>
<rect x="46.34" y="6.768203230275509" width="0.32" height="0.32" fill="#ffffff"/>
<rect x="47.34" y="6.768203230275509" width="0.32" height="0.32" fill="#ffffff"/>
<rect x="48.34" y="6.768203230275509" width="0.32" height="0.32" fill="#ffffff"/>
<rect x="49.34" y="6.768203230275509" width="0.32" height="0.32" fill="#ffffff"/>
<rect x="50.34" y="6.768203230275509" width="0.32" height="0.32" fill="#ffffff"/>
<rect x="51.34" y="6.768203230275509" width="0.32" height="0.32" fill="#ffffff"/>
<rect x="52.34" y="6.768203230275509" width="0.32" height="0.32" fill="#ffffff"/>
<rect x="53.34" y="6.768203230275509" width="0.32" height="0.32" fill="#ffffff"/>
<rect x="54.34" y="6.768203230275509" width="0.32" height="0.32" fill="#ffffff"/>
<rect x="55.34" y="6.768203230275509" width="0.32" height="0.32" fill="#ffffff"/>
<rect x="56.34" y="6.768203230275509" width="0.32" height="0.32" fill="#ffffff"/>
<rect x="57.34" y="6.768203230275509" width="0.32" height="0.32" fill="#ffffff"/>
<rect x="58.34" y="6.768203230275509" width="0.32" height="0.32" fill="#ffffff"/>
<rect x="63.34" y="6.768203230275509" width="0.32" height="0.32" fill="#ff0000"/>
<rect x="9.84" y="7.634228634059947" width="0.32" height="0.32" fill="#ffffff"/>
<rect x="10.84" y="7.634228634059947" width="0.32" height="0.32" fill="#ffffff"/>
<rect x="11.84" y="7.634228634059947" width="0.32" height="0.32" fill="#ffffff"/>
<rect x="12.84" y="7.634228634059947" width="0.32" height="0.32" fill="#ffffff"/>
<rect x="13.84" y="7.634228634059947" width="0.32" height="0.32" fill="#ffffff"/>
<rect x="14.84" y="7.634228634059947" width="0.32" height="0.32" fill="#ffffff"/>
<rect x="15.84" y="7.634228634059947" width="0.32" height="0.32" fill="#ffffff"/>
<rect x="16.84" y="7.634228634059947" width="0.32" height="0.32" fill="#ffffff"/>
<rect x="17.84" y="7.634228634059947" width="0.32" height="0.32" fill="#ffffff"/>
<rect x="18.84" y="7.634228634059947" width="0.32" height="0.32" fill="#ffffff"/>
<rect x="19.84" y="7.634228634059947" width="0.32" height="0.32" fill="#ffffff"/>
<rect x="20.84" y="7.634228634059947" width="0.32" height="0.32" fill="#ffffff"/>
<rect x="21.84" y="7.634228634059947" width="0.32" height="0.32" fill="#ff0000"/>
<rect x="31.84" y="7.634228634059947" width="0.32" height="0.32" fill="#ffffff"/>
<rect x="32.84" y="7.634228634059947" width="0.32" height="0.32" fill="#ffffff"/>
<rect x="34.84" y="7.634228634059947" width="0.32" height="0.32" fill="#ffffff"/>
<rect x="35.84" y="7.634228634059947" width="0.32" height="0.32" fill="#ffffff"/>
<rect x="36.84" y="7.634228634059947" width="0.32" height="0.32" fill="#ffffff"/>
<rect x="37.84" y="7.634228634059947" width="0.32" height="0.32" fill="#ffffff"/>
<rect x="38.84" y="7.634228634059947" width="0.32" height="0.32" fill="#ffffff"/>
<rect x="39.84" y="7.634228634059947" width="0.32" height="0.32" fill="#ffffff"/>
<rect x="40.84" y="7.634228634059947" width="0.32" height="0.32" fill="#ffffff"/>
<rect x="41.84" y="7.634228634059947" width="0.32" height="0.32" fill="#ffffff"/>
<rect x="42.84" y="7.634228634059947" width="0.32" height="0.32" fill="#ffffff"/>
<rect x="43.84" y="7.634228634059947" width="0.32" height="0.32" fill="#ffffff"/>
<rect x="44.84" y="7.634228634059947" width="0.32" height="0.32" fill="#ffffff"/>
<rect x="45.84" y="7.634228634059947" width="0.32" height="0.32" fill="#ffffff"/>
<rect x="46.84" y="7.634228634059947" width="0.32" height="0.32" fill="#ffffff"/>
<rect x="47.84" y="7.634228634059947" width="0.32" height="0.32" fill="#ffffff"/>
<rect x="48.84" y="7.634228634059947" width="0.32" height="0.32" fill="#ffffff"/>
<rect x="49.84" y="7.634228634059947" width="0.32" height="0.32" fill="#ffffff"/>
<rect x="50.84" y="7.634228634059947" width="0.32" height="0.32" fill="#ffffff"/>
<rect x="51.84" y="7.634228634059947" width="0.32" height="0.32" fill="#ffffff"/>
<rect x="52.84" y="7.634228634059947" width="0.32" height="0.32" fill="#ffffff"/>
<rect x="53.84" y="7.634228634059947" width="0.32" height="0.32" fill="#ffffff"/>
<rect x="54.84" y="7.634228634059947" width="0.32" height="0.32" fill="#ffffff"/>
<rect x="55.84" y="7.634228634059947" width="0.32" height="0.32" fill="#ffffff"/>
<rect x="56.84" y="7.634228634059947" width="0.32" height="0.32" fill="#ffffff"/>
<rect x="57.84" y="7.634228634059947" width="0.32" height="0.32" fill="#ffffff"/>
<rect x="58.84" y="7.634228634059947" width="0.32" height="0.32" fill="#ffffff"/>
<rect x="62.84" y="7.634228634059947" width="0.32" height="0.32" fill="#ffffff"/>
<rect x="11.34" y="8.500254037844385" width="0.32" height="0.32" fill="#ffffff"/>
<rect x="12.34" y="8.500254037844385" width="0.32" height="0.32" fill="#ffffff"/>
<rect x="13.34" y="8.500254037844385" width="0.32" height="0.32" fill="#ffffff"/>
<rect x="14.34" y="8.500254037844385" width="0.32" height="0.32" fill="#ffffff"/>
<rect x="15.34" y="8.500254037844385" width="0.32" height="0.32" fill="#ffffff"/>
<rect x="16.34" y="8.500254037844385" width="0.32" height="0.32" fill="#ffffff"/>
<rect x="17.34" y="8.500254037844385" width="0.32" height="0.32" fill="#ffffff"/>
<rect x="18.34" y="8.500254037844385" width="0.32" height="0.32" fill="#ffffff"/>
<rect x="19.34" y="8.500254037844385" width="0.32" height="0.32" fill="#ffffff"/>
<rect x="20.34" y="8.500254037844385" width="0.32" height="0.32" fill="#ffffff"/>
<rect x="33.34" y="8.500254037844385" width="0.32" height="0.32" fill="#ffffff"/>
<rect x="34.34" y="8.500254037844385" width="0.32" height="0.32" fill="#ffffff"/>
<rect x="35.34" y="8.500254037844385" width="0.32" height="0.32" fill="#ffffff"/>
<rect x="36.34" y="8.500254037844385" width="0.32" height="0.32" fill="#ffffff"/>
<rect x="37.34" y="8.500254037844385" width="0.32" height="0.32" fill="#ffffff"/>
<rect x="38.34" y="8.500254037844385" width="0.32" height="0.32" fill="#ffffff"/>
<rect x="39.34" y="8.500254037844385" width="0.32" height="0.32" fill="#ffffff"/>
<rect x="40.34" y="8.500254037844385" width="0.32" height="0.32" fill="#ffffff"/>
<rect x="41.34" y="8.500254037844385" width="0.32" height="0.32" fill="#ffffff"/>
<rect x="42.34" y="8.500254037844385" width="0.32" height="0.32" fill="#ffffff"/>
<rect x="43.34" y="8.500254037844385" width="0.32" height="0.32" fill="#ffffff"/>
<rect x="44.34" y="8.500254037844385" width="0.32" height="0.32" fill="#ffffff"/>
<rect x="45.34" y="8.500254037844385" width="0.32" height="0.32" fill="#ffffff"/>
<rect x="46.34" y="8.500254037844385" width="0.32" height="0.32" fill="#ffffff"/>
<rect x="47.34" y="8.500254037844385" width="0.32" height="0.32" fill="#ffffff"/>
<rect x="48.34" y="8.500254037844385" width="0.32" height="0.32" fill="#ffffff"/>
<rect x="49.34" y="8.500254037844385" width="0.32" height="0.32" fill="#ffffff"/>
<rect x="50.34" y="8.500254037844385" width="0.32" height="0.32" fill="#ffffff"/>
<rect x="51.34" y="8.500254037844385" width="0.32" height="0.32" fill="#ffffff"/>
<rect x="52.34" y="8.500254037844385" width="0.32" height="0.32" fill="#ffffff"/>
<rect x="53.34" y="8.500254037844385" width="0.32" height="0.32" fill="#ffffff"/>
<rect x="54.34" y="8.500254037844385" width="0.32" height="0.32" fill="#ffffff"/>
<rect x="55.34" y="8.500254037844385" width="0.32" height="0.32" fill="#ffffff"/>
<rect x="56.34" y="8.500254037844385" width="0.32" height="0.32" fill="#ffffff"/>
<rect x="57.34" y="8.500254037844385" width="0.32" height="0.32" fill="#ffffff"/>
<rect x="58.34" y="8.500254037844385" width="0.32" height="0.32" fill="#ffffff"/>
<rect x="59.34" y="8.500254037844385" width="0.32" height="0.32" fill="#ffffff"/>
<rect x="10.84" y="9.366279441628825" width="0.32" height="0.32" fill="#ffffff"/>
<rect x="11.84" y="9.366279441628825" width="0.32" height="0.32" fill="#ffffff"/>
<rect x="12.84" y="9.366279441628825" width="0.32" height="0.32" fill="#ffffff"/>
<rect x="13.84" y="9.366279441628825" width="0.32" height="0.32" fill="#ffffff"/>
<rect x="14.84" y="9.366279441628825" width="0.32" height="0.32" fill="#ffffff"/>
<rect x="15.84" y="9.366279441628825" width="0.32" height="0.32" fill="#ffffff"/>
<rect x="16.84" y="9.366279441628825" width="0.32" height="0.32" fill="#ffffff"/>
<rect x="17.84" y="9.366279441628825" width="0.32" height="0.32" fill="#ffffff"/>
<rect x="18.84" y="9.366279441628825" width="0.32" height="0.32" fill="#ffffff"/>
<rect x="19.84" y="9.366279441628825" width="0.32" height="0.32" fill="#ffffff"/>
<rect x="20.84" y="9.366279441628825" width="0.32" height="0.32" fill="#ffffff"/>
<rect x="21.84" y="9.366279441628825" width="0.32" height="0.32" fill="#ffffff"/>
<rect x="33.84" y="9.366279441628825" width="0.32" height="0.32" fill="#ff0000"/>
<rect x="34.84" y="9.366279441628825" width="0.32" height="0.32" fill="#ffffff"/>
<rect x="35.84" y="9.366279441628825" width="0.32" height="0.32" fill="#ffffff"/>
<rect x="36.84" y="9.366279441628825" width="0.32" height="0.32" fill="#ffffff"/>
<rect x="37.84" y="9.366279441628825" width="0.32" height="0.32" fill="#ffffff"/>
<rect x="38.84" y="9.366279441628825" width="0.32" height="0.32" fill="#ffffff"/>
<rect x="39.84" y="9.366279441628825" width="0.32" height="0.32" fill="#ffffff"/>
<rect x="40.84" y="9.366279441628825" width="0.32" height="0.32" fill="#ffffff"/>
<rect x="41.84" y="9.366279441628825" width="0.32" height="0.32" fill="#ffffff"/>
<rect x="43.84" y="9.366279441628825" width="0.32" height="0.32" fill="#ffffff"/>
<rect x="44.84" y="9.366279441628825" width="0.32" height="0.32" fill="#ffffff"/>
<rect x="45.84" y="9.366279441628825" width="0.32" height="0.32" fill="#ffffff"/>
<rect x="46.84" y="9.366279441628825" width="0.32" height="0.32" fill="#ffffff"/>
<rect x="47.84" y="9.366279441628825" width="0.32" height="0.32" fill="#ffffff"/>
<rect x="48.84" y="9.366279441628825" width="0.32" height="0.32" fill="#ffffff"/>
<rect x="49.84" y="9.366279441628825" width="0.32" height="0.32" fill="#ffffff"/>
<rect x="50.84" y="9.366279441628825" width="0.32" height="0.32" fill="#ffffff"/>
<rect x="51.84" y="9.366279441628825" width="0.32" height="0.32" fill="#ffffff"/>
<rect x="52.84" y="9.366279441628825" width="0.32" height="0.32" fill="#ffffff"/>
<rect x="53.84" y="9.366279441628825" width="0.32" height="0.32" fill="#ffffff"/>
<rect x="54.84" y="9.366279441628825" width="0.32" height="0.32" fill="#ffffff"/>
<rect x="55.84" y="9.366279441628825" width="0.32" height="0.32" fill="#ffffff"/>
<rect x="56.84" y="9.366279441628825" width="0.32" height="0.32" fill="#ffffff"/>
<rect x="57.84" y="9.366279441628825" width="0.32" height="0.32" fill="#ffffff"/>
<rect x="58.84" y="9.366279441628825" width="0.32" height="0.32" fill="#ffffff"/>
<rect x="10.34" y="10.232304845413264" width="0.32" height="0.32" fill="#ffffff"/>
<rect x="11.34" y="10.232304845413264" width="0.32" height="0.32" fill="#ffffff"/>
<rect x="12.34" y="10.232304845413264" width="0.32" height="0.32" fill="#ffffff"/>
<rect x="13.34" y="10.232304845413264" width="0.32" height="0.32" fill="#ffffff"/>
<rect x="14.34" y="10.232304845413264" width="0.32" height="0.32" fill="#ffffff"/>
<rect x="15.34" y="10.232304845413264" width="0.32" height="0.32" fill="#ffffff"/>
<rect x="16.34" y="10.232304845413264" width="0.32" height="0.32" fill="#ffffff"/>
<rect x="17.34" y="10.232304845413264" width="0.32" height="0.32" fill="#ffffff"/>
<rect x="18.34" y="10.232304845413264" width="0.32" height="0.32" fill="#ffffff"/>
<rect x="19.34" y="10.232304845413264" width="0.32" height="0.32" fill="#ffffff"/>
<rect x="32.34" y="10.232304845413264" width="0.32" height="0.32" fill="#ffffff"/>
<rect x="33.34" y="10.232304845413264" width="0.32" height="0.32" fill="#ffffff"/>
<rect x="37.34" y="10.232304845413264" width="0.32" height="0.32" fill="#ffffff"/>
<rect x="38.34" y="10.232304845413264" width="0.32" height="0.32" fill="#ffffff"/>
<rect x="41.34" y="10.232304845413264" width="0.32" height="0.32" fill="#ffffff"/>
<rect x="43.34" y="10.232304845413264" width="0.32" height="0.32" fill="#ffffff"/>
<rect x="44.34" y="10.232304845413264" width="0.32" height="0.32" fill="#ffffff"/>
<rect x="45.34" y="10.232304845413264" width="0.32" height="0.32" fill="#ffffff"/>
<rect x="46.34" y="10.232304845413264" width="0.32" height="0.32" fill="#ffffff"/>
<rect x="47.34" y="10.232304845413264" width="0.32" height="0.32" fill="#ffffff"/>
<rect x="48.34" y="10.232304845413264" width="0.32" height="0.32" fill="#ffffff"/>
<rect x="49.34" y="10.232304845413264" width="0.32" height="0.32" fill="#ffffff"/>
<rect x="50.34" y="10.232304845413264" width="0.32" height="0.32" fill="#ffffff"/>
<rect x="51.34" y="10.232304845413264" width="0.32" height="0.32" fill="#ffffff"/>
<rect x="52.34" y="10.232304845413264" width="0.32" height="0.32" fill="#ffffff"/>
<rect x="53.34" y="10.232304845413264" width="0.32" height="0.32" fill="#ffffff"/>
<rect x="54.34" y="10.232304845413264" width="0.32" height="0.32" fill="#ffffff"/>
<rect x="55.34" y="10.232304845413264" width="0.32" height="0.32" fill="#ffffff"/>
<rect x="56.34" y="10.232304845413264" width="0.32" height="0.32" fill="#ffffff"/>
<rect x="57.34" y="10.232304845413264" width="0.32" height="0.32" fill="#ffffff"/>
<rect x="10.84" y="11.098330249197701" width="0.32" height="0.32" fill="#ffffff"/>
<rect x="11.84" y="11.098330249197701" width="0.32" height="0.32" fill="#ffffff"/>
<rect x="12.84" y="11.098330249197701" width="0.32" height="0.32" fill="#ffffff"/>
<rect x="13.84" y="11.098330249197701" width="0.32" height="0.32" fill="#ffffff"/>
<rect x="14.84" y="11.098330249197701" width="0.32" height="0.32" fill="#ffffff"/>
<rect x="15.84" y="11.098330249197701" width="0.32" height="0.32" fill="#ffffff"/>
<rect x="16.84" y="11.098330249197701" width="0.32" height="0.32" fill="#ffffff"/>
<rect x="17.84" y="11.098330249197701" width="0.32" height="0.32" fill="#ffffff"/>
<rect x="18.84" y="11.098330249197701" width="0.32" height="0.32" fill="#ffffff"/>
<rect x="31.84" y="11.098330249197701" width="0.32" height="0.32" fill="#ffffff"/>
<rect x="32.84" y="11.098330249197701" width="0.32" height="0.32" fill="#ffffff"/>
<rect x="38.84" y="11.098330249197701" width="0.32" height="0.32" fill="#ffffff"/>
<rect x="39.84" y="11.098330249197701" width="0.32" height="0.32" fill="#ffffff"/>
<rect x="40.84" y="11.098330249197701" width="0.32" height="0.32" fill="#ffffff"/>
<rect x="41.84" y="11.098330249197701" width="0.32" height="0.32" fill="#ffffff"/>
<rect x="43.84" y="11.098330249197701" width="0.32" height="0.32" fill="#ffffff"/>
<rect x="44.84" y="11.098330249197701" width="0.32" height="0.32" fill="#ffffff"/>
<rect x="45.84" y="11.098330249197701" width="0.32" height="0.32" fill="#ffffff"/>
<rect x="46.84" y="11.098330249197701" width="0.32" height="0.32" fill="#ffffff"/>
<rect x="47.84" y="11.098330249197701" width="0.32" height="0.32" fill="#ffffff"/>
<rect x="48.84" y="11.098330249197701" width="0.32" height="0.32" fill="#ffffff"/>
<rect x="49.84" y="11.098330249197701" width="0.32" height="0.32" fill="#ffffff"/>
<rect x="50.84" y="11.098330249197701" width="0.32" height="0.32" fill="#ffffff"/>
<rect x="51.84" y="11.098330249197701" width="0.32" height="0.32" fill="#ffffff"/>
<rect x="52.84" y="11.098330249197701" width="0.32" height="0.32" fill="#ffffff"/>
<rect x="53.84" y="11.098330249197701" width="0.32" height="0.32" fill="#ffffff"/>
<rect x="54.84" y="11.098330249197701" width="0.32" height="0.32" fill="#ffffff"/>
<rect x="56.84" y="11.098330249197701" width="0.32" height="0.32" fill="#ffffff"/>
<rect x="59.84" y="11.098330249197701" width="0.32" height="0.32" fill="#ffffff"/>
<rect x="11.34" y="11.96435565298214" width="0.32" height="0.32" fill="#ffffff"/>
<rect x="12.34" y="11.96435565298214" width="0.32" height="0.32" fill="#ffffff"/>
<rect x="13.34" y="11.96435565298214" width="0.32" height="0.32" fill="#ffffff"/>
<rect x="14.34" y="11.96435565298214" width="0.32" height="0.32" fill="#ffffff"/>
<rect x="15.34" y="11.96435565298214" width="0.32" height="0.32" fill="#ffffff"/>
<rect x="16.34" y="11.96435565298214" width="0.32" height="0.32" fill="#ffffff"/>
<rect x="17.34" y="11.96435565298214" width="0.32" height="0.32" fill="#ffffff"/>
<rect x="18.34" y="11.96435565298214" width="0.32" height="0.32" fill="#ffffff"/>
<rect x="32.34" y="11.96435565298214" width="0.32" height="0.32" fill="#ffffff"/>
<rect x="33.34" y="11.96435565298214" width="0.32" height="0.32" fill="#ffffff"/>
<rect x="34.34" y="11.96435565298214" width="0.32" height="0.32" fill="#ffffff"/>
<rect x="35.34" y="11.96435565298214" width="0.32" height="0.32" fill="#ffffff"/>
<rect x="40.34" y="11.96435565298214" width="0.32" height="0.32" fill="#ffffff"/>
<rect x="41.34" y="11.96435565298214" width="0.32" height="0.32" fill="#ffffff"/>
<rect x="42.34" y="11.96435565298214" width="0.32" height="0.32" fill="#ffffff"/>
<rect x="43.34" y="11.96435565298214" width="0.32" height="0.32" fill="#ffffff"/>
<rect x="44.34" y="11.96435565298214" width="0.32" height="0.32" fill="#ffffff"/>
<rect x="45.34" y="11.96435565298214" width="0.32" height="0.32" fill="#ffffff"/>
<rect x="46.34" y="11.96435565298214" width="0.32" height="0.32" fill="#ffffff"/>
<rect x="47.34" y="11.96435565298214" width="0.32" height="0.32" fill="#ffffff"/>
<rect x="48.34" y="11.96435565298214" width="0.32" height="0.32" fill="#ffffff"/>
<rect x="49.34" y="11.96435565298214" width="0.32" height="0.32" fill="#ffffff"/>
<rect x="50.34" y="11.96435565298214" width="0.32" height="0.32" fill="#ffffff"/>
<rect x="51.34" y="11.96435565298214" width="0.32" height="0.32" fill="#ffffff"/>
<rect x="52.34" y="11.96435565298214" width="0.32" height="0.32" fill="#ffffff"/>
<rect x="53.34" y="11.96435565298214" width="0.32" height="0.32" fill="#ffffff"/>
<rect x="54.34" y="11.96435565298214" width="0.32" height="0.32" fill="#ffffff"/>
<rect x="55.34" y="11.96435565298214" width="0.32" height="0.32" fill="#ffffff"/>
<rect x="57.34" y="11.96435565298214" width="0.32" height="0.32" fill="#ffffff"/>
<rect x="58.34" y="11.96435565298214" width="0.32" height="0.32" fill="#ffffff"/>
<rect x="59.34" y="11.96435565298214" width="0.32" height="0.32" fill="#ffffff"/>
<rect x="11.84" y="12.830381056766578" width="0.32" height="0.32" fill="#ffffff"/>
<rect x="12.84" y="12.830381056766578" width="0.32" height="0.32" fill="#ffffff"/>
<rect x="13.84" y="12.830381056766578" width="0.32" height="0.32" fill="#ffffff"/>
<rect x="14.84" y="12.830381056766578" width="0.32" height="0.32" fill="#ffffff"/>
<rect x="15.84" y="12.830381056766578" width="0.32" height="0.32" fill="#ffffff"/>
<rect x="16.84" y="12.830381056766578" width="0.32" height="0.32" fill="#ffffff"/>
<rect x="17.84" y="12.830381056766578" width="0.32" height="0.32" fill="#ffffff"/>
<rect x="31.84" y="12.830381056766578" width="0.32" height="0.32" fill="#ffffff"/>
<rect x="32.84" y="12.830381056766578" width="0.32" height="0.32" fill="#ffffff"/>
<rect x="33.84" y="12.830381056766578" width="0.32" height="0.32" fill="#ffffff"/>
<rect x="34.84" y="12.830381056766578" width="0.32" height="0.32" fill="#ffffff"/>
<rect x="35.84" y="12.830381056766578" width="0.32" height="0.32" fill="#ffffff"/>
<rect x="37.84" y="12.830381056766578" width="0.32" height="0.32" fill="#ffffff"/>
<rect x="39.84" y="12.830381056766578" width="0.32" height="0.32" fill="#ffffff"/>
<rect x="40.84" y="12.830381056766578" width="0.32" height="0.32" fill="#ffffff"/>
<rect x="41.84" y="12.830381056766578" width="0.32" height="0.32" fill="#ffffff"/>
<rect x="42.84" y="12.830381056766578" width="0.32" height="0.32" fill="#ffffff"/>
<rect x="43.84" y="12.830381056766578" width="0.32" height="0.32" fill="#ffffff"/>
<rect x="44.84" y="12.830381056766578" width="0.32" height="0.32" fill="#ffffff"/>
<rect x="45.84" y="12.830381056766578" width="0.32" height="0.32" fill="#ffffff"/>
<rect x="46.84" y="12.830381056766578" width="0.32" height="0.32" fill="#ffffff"/>
<rect x="47.84" y="12.830381056766578" width="0.32" height="0.32" fill="#ffffff"/>
<rect x="48.84" y="12.830381056766578" width="0.32" height="0.32" fill="#ffffff"/>
<rect x="49.84" y="12.830381056766578" width="0.32" height="0.32" fill="#ffffff"/>
<rect x="50.84" y="12.830381056766578" width="0.32" height="0.32" fill="#ffffff"/>
<rect x="51.84" y="12.830381056766578" width="0.32" height="0.32" fill="#ffffff"/>
<rect x="52.84" y="12.830381056766578" width="0.32" height="0.32" fill="#ffffff"/>
<rect x="53.84" y="12.830381056766578" width="0.32" height="0.32" fill="#ffffff"/>
<rect x="54.84" y="12.830381056766578" width="0.32" height="0.32" fill="#ffffff"/>
<rect x="55.84" y="12.830381056766578" width="0.32" height="0.32" fill="#ffffff"/>
<rect x="57.84" y="12.830381056766578" width="0.32" height="0.32" fill="#ffffff"/>
<rect x="13.34" y="13.696406460551017" width="0.32" height="0.32" fill="#ffffff"/>
<rect x="14.34" y="13.696406460551017" width="0.32" height="0.32" fill="#ffffff"/>
<rect x="31.34" y="13.696406460551017" width="0.32" height="0.32" fill="#ffffff"/>
<rect x="32.34" y="13.696406460551017" width="0.32" height="0.32" fill="#ffffff"/>
<rect x="33.34" y="13.696406460551017" width="0.32" height="0.32" fill="#ffffff"/>
<rect x="34.34" y="13.696406460551017" width="0.32" height="0.32" fill="#ffffff"/>
<rect x="35.34" y="13.696406460551017" width="0.32" height="0.32" fill="#ffffff"/>
<rect x="36.34" y="13.696406460551017" width="0.32" height="0.32" fill="#ffffff"/>
<rect x="37.34" y="13.696406460551017" width="0.32" height="0.32" fill="#ffffff"/>
<rect x="38.34" y="13.696406460551017" width="0.32" height="0.32" fill="#ffffff"/>
<rect x="39.34" y="13.696406460551017" width="0.32" height="0.32" fill="#ffffff"/>
<rect x="40.34" y="13.696406460551017" width="0.32" height="0.32" fill="#ffffff"/>
<rect x="41.34" y="13.696406460551017" width="0.32" height="0.32" fill="#ffffff"/>
<rect x="42.34" y="13.696406460551017" width="0.32" height="0.32" fill="#ffffff"/>
<rect x="43.34" y="13.696406460551017" width="0.32" height="0.32" fill="#ffffff"/>
<rect x="44.34" y="13.696406460551017" width="0.32" height="0.32" fill="#ffffff"/>
<rect x="45.34" y="13.696406460551017" width="0.32" height="0.32" fill="#ffffff"/>
<rect x="46.34" y="13.696406460551017" width="0.32" height="0.32" fill="#ffffff"/>
<rect x="47.34" y="13.696406460551017" width="0.32" height="0.32" fill="#ffffff"/>
<rect x="48.34" y="13.696406460551017" width="0.32" height="0.32" fill="#ffffff"/>
<rect x="49.34" y="13.696406460551017" width="0.32" height="0.32" fill="#ffffff"/>
<rect x="50.34" y="13.696406460551017" width="0.32" height="0.32" fill="#ffffff"/>
<rect x="51.34" y="13.696406460551017" width="0.32" height="0.32" fill="#ffffff"/>
<rect x="52.34" y="13.696406460551017" width="0.32" height="0.32" fill="#ffffff"/>
<rect x="53.34" y="13.696406460551017" width="0.32" height="0.32" fill="#ffffff"/>
<rect x="54.34" y="13.696406460551017" width="0.32" height="0.32" fill="#ffffff"/>
<rect x="55.34" y="13.696406460551017" width="0.32" height="0.32" fill="#ffffff"/>
<rect x="12.84" y="14.562431864335457" width="0.32" height="0.32" fill="#ffffff"/>
<rect x="13.84" y="14.562431864335457" width="0.32" height="0.32" fill="#ffffff"/>
<rect x="14.84" y="14.562431864335457" width="0.32" height="0.32" fill="#ffffff"/>
<rect x="30.84" y="14.562431864335457" width="0.32" height="0.32" fill="#ffffff"/>
<rect x="31.84" y="14.562431864335457" width="0.32" height="0.32" fill="#ffffff"/>
<rect x="32.84" y="14.562431864335457" width="0.32" height="0.32" fill="#ffffff"/>
<rect x="33.84" y="14.562431864335457" width="0.32" height="0.32" fill="#ffffff"/>
<rect x="34.84" y="14.562431864335457" width="0.32" height="0.32" fill="#ffffff"/>
<rect x="35.84" y="14.562431864335457" width="0.32" height="0.32" fill="#ffffff"/>
<rect x="36.84" y="14.562431864335457" width="0.32" height="0.32" fill="#ffffff"/>
<rect x="37.84" y="14.562431864335457" width="0.32" height="0.32" fill="#ffffff"/>
<rect x="38.84" y="14.562431864335457" width="0.32" height="0.32" fill="#ffffff"/>
<rect x="39.84" y="14.562431864335457" width="0.32" height="0.32" fill="#ffffff"/>
<rect x="40.84" y="14.562431864335457" width="0.32" height="0.32" fill="#ffffff"/>
<rect x="41.84" y="14.562431864335457" width="0.32" height="0.32" fill="#ffffff"/>
<rect x="42.84" y="14.562431864335457" width="0.32" height="0.32" fill="#ffffff"/>
<rect x="43.84" y="14.562431864335457" width="0.32" height="0.32" fill="#ffffff"/>
<rect x="46.84" y="14.562431864335457" width="0.32" height="0.32" fill="#ffffff"/>
<rect x="47.84" y="14.562431864335457" width="0.32" height="0.32" fill="#ffffff"/>
<rect x="48.84" y="14.562431864335457" width="0.32" height="0.32" fill="#ffffff"/>
<rect x="49.84" y="14.562431864335457" width="0.32" height="0.32" fill="#ffffff"/>
<rect x="50.84" y="14.562431864335457" width="0.32" height="0.32" fill="#ffffff"/>
<rect x="51.84" y="14.562431864335457" width="0.32" height="0.32" fill="#ffffff"/>
<rect x="52.84" y="14.562431864335457" width="0.32" height="0.32" fill="#ffffff"/>
<rect x="53.84" y="14.562431864335457" width="0.32" height="0.32" fill="#ffffff"/>
<rect x="54.84" y="14.562431864335457" width="0.32" height="0.32" fill="#ffffff"/>
<rect x="55.84" y="14.562431864335457" width="0.32" height="0.32" fill="#ffffff"/>
<rect x="14.34" y="15.428457268119894" width="0.32" height="0.32" fill="#ffffff"/>
<rect x="15.34" y="15.428457268119894" width="0.32" height="0.32" fill="#ffffff"/>
<rect x="16.34" y="15.428457268119894" width="0.32" height="0.32" fill="#ffffff"/>
<rect x="20.34" y="15.428457268119894" width="0.32" height="0.32" fill="#ffffff"/>
<rect x="30.34" y="15.428457268119894" width="0.32" height="0.32" fill="#ffffff"/>
<rect x="31.34" y="15.428457268119894" width="0.32" height="0.32" fill="#ffffff"/>
<rect x="32.34" y="15.428457268119894" width="0.32" height="0.32" fill="#ffffff"/>
<rect x="33.34" y="15.428457268119894" width="0.32" height="0.32" fill="#ffffff"/>
<rect x="34.34" y="15.428457268119894" width="0.32" height="0.32" fill="#ffffff"/>
<rect x="35.34" y="15.428457268119894" width="0.32" height="0.32" fill="#ffffff"/>
<rect x="36.34" y="15.428457268119894" width="0.32" height="0.32" fill="#ffffff"/>
<rect x="37.34" y="15.428457268119894" width="0.32" height="0.32" fill="#ffffff"/>
<rect x="38.34" y="15.428457268119894" width="0.32" height="0.32" fill="#ffffff"/>
<rect x="39.34" y="15.428457268119894" width="0.32" height="0.32" fill="#ffffff"/>
<rect x="41.34" y="15.428457268119894" width="0.32" height="0.32" fill="#ffffff"/>
<rect x="42.34" y="15.428457268119894" width="0.32" height="0.32" fill="#ffffff"/>
<rect x="43.34" y="15.428457268119894" width="0.32" height="0.32" fill="#ffffff"/>
<rect x="47.34" y="15.428457268119894" width="0.32" height="0.32" fill="#ffffff"/>
<rect x="48.34" y="15.428457268119894" width="0.32" height="0.32" fill="#ffffff"/>
<rect x="51.34" y="15.428457268119894" width="0.32" height="0.32" fill="#ffffff"/>
<rect x="52.34" y="15.428457268119894" width="0.32" height="0.32" fill="#ffffff"/>
<rect x="16.84" y="16.294482671904333" width="0.32" height="0.32" fill="#ffffff"/>
<rect x="30.84" y="16.294482671904333" width="0.32" height="0.32" fill="#ffffff"/>
<rect x="31.84" y="16.294482671904333" width="0.32" height="0.32" fill="#ffffff"/>
<rect x="32.84" y="16.294482671904333" width="0.32" height="0.32" fill="#ffffff"/>
<rect x="33.84" y="16.294482671904333" width="0.32" height="0.32" fill="#ffffff"/>
<rect x="34.84" y="16.294482671904333" width="0.32" height="0.32" fill="#ffffff"/>
<rect x="35.84" y="16.294482671904333" width="0.32" height="0.32" fill="#ffffff"/>
<rect x="36.84" y="16.294482671904333" width="0.32" height="0.32" fill="#ffffff"/>
<rect x="37.84" y="16.294482671904333" width="0.32" height="0.32" fill="#ffffff"/>
<rect x="38.84" y="16.294482671904333" width="0.32" height="0.32" fill="#ffffff"/>
<rect x="39.84" y="16.294482671904333" width="0.32" height="0.32" fill="#ffffff"/>
<rect x="40.84" y="16.294482671904333" width="0.32" height="0.32" fill="#ffffff"/>
<rect x="41.84" y="16.294482671904333" width="0.32" height="0.32" fill="#ffffff"/>
<rect x="47.84" y="16.294482671904333" width="0.32" height="0.32" fill="#ffffff"/>
<rect x="51.84" y="16.294482671904333" width="0.32" height="0.32" fill="#ffffff"/>
<rect x="52.84" y="16.294482671904333" width="0.32" height="0.32" fill="#ffffff"/>
<rect x="17.34" y="17.16050807568877" width="0.32" height="0.32" fill="#ffffff"/>
<rect x="19.34" y="17.16050807568877" width="0.32" height="0.32" fill="#ffffff"/>
<rect x="20.34" y="17.16050807568877" width="0.32" height="0.32" fill="#ffffff"/>
<rect x="21.34" y="17.16050807568877" width="0.32" height="0.32" fill="#ffffff"/>
<rect x="31.34" y="17.16050807568877" width="0.32" height="0.32" fill="#ffffff"/>
<rect x="32.34" y="17.16050807568877" width="0.32" height="0.32" fill="#ffffff"/>
<rect x="33.34" y="17.16050807568877" width="0.32" height="0.32" fill="#ffffff"/>
<rect x="34.34" y="17.16050807568877" width="0.32" height="0.32" fill="#ffffff"/>
<rect x="35.34" y="17.16050807568877" width="0.32" height="0.32" fill="#ffffff"/>
<rect x="36.34" y="17.16050807568877" width="0.32" height="0.32" fill="#ffffff"/>
<rect x="37.34" y="17.16050807568877" width="0.32" height="0.32" fill="#ffffff"/>
<rect x="38.34" y="17.16050807568877" width="0.32" height="0.32" fill="#ffffff"/>
<rect x="39.34" y="17.16050807568877" width="0.32" height="0.32" fill="#ffffff"/>
<rect x="40.34" y="17.16050807568877" width="0.32" height="0.32" fill="#ffffff"/>
<rect x="41.34" y="17.16050807568877" width="0.32" height="0.32" fill="#ffffff"/>
<rect x="53.34" y="17.16050807568877" width="0.32" height="0.32" fill="#ffffff"/>
<rect x="56.34" y="17.16050807568877" width="0.32" height="0.32" fill="#ffffff"/>
<rect x="18.84" y="18.026533479473212" width="0.32" height="0.32" fill="#ffffff"/>
<rect x="19.84" y="18.026533479473212" width="0.32" height="0.32" fill="#ffffff"/>
<rect x="20.84" y="18.026533479473212" width="0.32" height="0.32" fill="#ffffff"/>
<rect x="21.84" y="18.026533479473212" width="0.32" height="0.32" fill="#ffffff"/>
<rect x="22.84" y="18.026533479473212" width="0.32" height="0.32" fill="#ffffff"/>
<rect x="31.84" y="18.026533479473212" width="0.32" height="0.32" fill="#ffffff"/>
<rect x="32.84" y="18.026533479473212" width="0.32" height="0.32" fill="#ffffff"/>
<rect x="34.84" y="18.026533479473212" width="0.32" height="0.32" fill="#ffffff"/>
<rect x="35.84" y="18.026533479473212" width="0.32" height="0.32" fill="#ffffff"/>
<rect x="36.84" y="18.026533479473212" width="0.32" height="0.32" fill="#ffffff"/>
<rect x="37.84" y="18.026533479473212" width="0.32" height="0.32" fill="#ffffff"/>
<rect x="38.84" y="18.026533479473212" width="0.32" height="0.32" fill="#ffffff"/>
<rect x="39.84" y="18.026533479473212" width="0.32" height="0.32" fill="#ffffff"/>
<rect x="40.84" y="18.026533479473212" width="0.32" height="0.32" fill="#ffffff"/>
<rect x="41.84" y="18.026533479473212" width="0.32" height="0.32" fill="#ffffff"/>
<rect x="19.34" y="18.89255888325765" width="0.32" height="0.32" fill="#ffffff"/>
<rect x="20.34" y="18.89255888325765" width="0.32" height="0.32" fill="#ffffff"/>
<rect x="21.34" y="18.89255888325765" width="0.32" height="0.32" fill="#ffffff"/>
<rect x="22.34" y="18.89255888325765" width="0.32" height="0.32" fill="#ffffff"/>
<rect x="23.34" y="18.89255888325765" width="0.32" height="0.32" fill="#ffffff"/>
<rect x="35.34" y="18.89255888325765" width="0.32" height="0.32" fill="#ffffff"/>
<rect x="36.34" y="18.89255888325765" width="0.32" height="0.32" fill="#ffffff"/>
<rect x="37.34" y="18.89255888325765" width="0.32" height="0.32" fill="#ffffff"/>
<rect x="38.34" y="18.89255888325765" width="0.32" height="0.32" fill="#ffffff"/>
<rect x="39.34" y="18.89255888325765" width="0.32" height="0.32" fill="#ffffff"/>
<rect x="40.34" y="18.89255888325765" width="0.32" height="0.32" fill="#ffffff"/>
<rect x="41.34" y="18.89255888325765" width="0.32" height="0.32" fill="#ffffff"/>
<rect x="52.34" y="18.89255888325765" width="0.32" height="0.32" fill="#ffffff"/>
<rect x="54.34" y="18.89255888325765" width="0.32" height="0.32" fill="#ffffff"/>
<rect x="55.34" y="18.89255888325765" width="0.32" height="0.32" fill="#ffffff"/>
<rect x="57.34" y="18.89255888325765" width="0.32" height="0.32" fill="#ffffff"/>
<rect x="18.84" y="19.758584287042087" width="0.32" height="0.32" fill="#ffffff"/>
<rect x="19.84" y="19.758584287042087" width="0.32" height="0.32" fill="#ffffff"/>
<rect x="20.84" y="19.758584287042087" width="0.32" height="0.32" fill="#ffffff"/>
<rect x="21.84" y="19.758584287042087" width="0.32" height="0.32" fill="#ffffff"/>
<rect x="22.84" y="19.758584287042087" width="0.32" height="0.32" fill="#ffffff"/>
<rect x="23.84" y="19.758584287042087" width="0.32" height="0.32" fill="#ffffff"/>
<rect x="24.84" y="19.758584287042087" width="0.32" height="0.32" fill="#ffffff"/>
<rect x="25.84" y="19.758584287042087" width="0.32" height="0.32" fill="#ffffff"/>
<rect x="35.84" y="19.758584287042087" width="0.32" height="0.32" fill="#ffffff"/>
<rect x="36.84" y="19.758584287042087" width="0.32" height="0.32" fill="#ffffff"/>
<rect x="37.84" y="19.758584287042087" width="0.32" height="0.32" fill="#ffffff"/>
<rect x="38.84" y="19.758584287042087" width="0.32" height="0.32" fill="#ffffff"/>
<rect x="39.84" y="19.758584287042087" width="0.32" height="0.32" fill="#ffffff"/>
<rect x="52.84" y="19.758584287042087" width="0.32" height="0.32" fill="#ffffff"/>
<rect x="54.84" y="19.758584287042087" width="0.32" height="0.32" fill="#ffffff"/>
<rect x="55.84" y="19.758584287042087" width="0.32" height="0.32" fill="#ffffff"/>
<rect x="58.84" y="19.758584287042087" width="0.32" height="0.32" fill="#ffffff"/>
<rect x="59.84" y="19.758584287042087" width="0.32" height="0.32" fill="#ffffff"/>
<rect x="61.84" y="19.758584287042087" width="0.32" height="0.32" fill="#ffffff"/>
<rect x="19.34" y="20.624609690826528" width="0.32" height="0.32" fill="#ffffff"/>
<rect x="20.34" y="20.624609690826528" width="0.32" height="0.32" fill="#ffffff"/>
<rect x="21.34" y="20.624609690826528" width="0.32" height="0.32" fill="#ffffff"/>
<rect x="22.34" y="20.624609690826528" width="0.32" height="0.32" fill="#ffffff"/>
<rect x="23.34" y="20.624609690826528" width="0.32" height="0.32" fill="#ffffff"/>
<rect x="24.34" y="20.624609690826528" width="0.32" height="0.32" fill="#ffffff"/>
<rect x="25.34" y="20.624609690826528" width="0.32" height="0.32" fill="#ffffff"/>
<rect x="26.34" y="20.624609690826528" width="0.32" height="0.32" fill="#ffffff"/>
<rect x="36.34" y="20.624609690826528" width="0.32" height="0.32" fill="#ffffff"/>
<rect x="37.34" y="20.624609690826528" width="0.32" height="0.32" fill="#ffffff"/>
<rect x="38.34" y="20.624609690826528" width="0.32" height="0.32" fill="#ffffff"/>
<rect x="39.34" y="20.624609690826528" width="0.32" height="0.32" fill="#ffffff"/>
<rect x="40.34" y="20.624609690826528" width="0.32" height="0.32" fill="#ffffff"/>
<rect x="54.34" y="20.624609690826528" width="0.32" height="0.32" fill="#ffffff"/>
<rect x="59.34" y="20.624609690826528" width="0.32" height="0.32" fill="#ffffff"/>
<rect x="19.84" y="21.490635094610965" width="0.32" height="0.32" fill="#ffffff"/>
<rect x="20.84" y="21.490635094610965" width="0.32" height="0.32" fill="#ffffff"/>
<rect x="21.84" y="21.490635094610965" width="0.32" height="0.32" fill="#ffffff"/>
<rect x="22.84" y="21.490635094610965" width="0.32" height="0.32" fill="#ffffff"/>
<rect x="23.84" y="21.490635094610965" width="0.32" height="0.32" fill="#ffffff"/>
<rect x="24.84" y="21.490635094610965" width="0.32" height="0.32" fill="#ffffff"/>
<rect x="25.84" y="21.490635094610965" width="0.32" height="0.32" fill="#ffffff"/>
<rect x="35.84" y="21.490635094610965" width="0.32" height="0.32" fill="#ffffff"/>
<rect x="36.84" y="21.490635094610965" width="0.32" height="0.32" fill="#ffffff"/>
<rect x="37.84" y="21.490635094610965" width="0.32" height="0.32" fill="#ffffff"/>
<rect x="38.84" y="21.490635094610965" width="0.32" height="0.32" fill="#ffffff"/>
<rect x="39.84" y="21.490635094610965" width="0.32" height="0.32" fill="#ffffff"/>
<rect x="40.84" y="21.490635094610965" width="0.32" height="0.32" fill="#ffffff"/>
<rect x="57.84" y="21.490635094610965" width="0.32" height="0.32" fill="#ffffff"/>
<rect x="58.84" y="21.490635094610965" width="0.32" height="0.32" fill="#ffffff"/>
<rect x="20.34" y="22.356660498395403" width="0.32" height="0.32" fill="#ffffff"/>
<rect x="21.34" y="22.356660498395403" width="0.32" height="0.32" fill="#ffffff"/>
<rect x="22.34" y="22.356660498395403" width="0.32" height="0.32" fill="#ffffff"/>
<rect x="23.34" y="22.356660498395403" width="0.32" height="0.32" fill="#ffffff"/>
<rect x="24.34" y="22.356660498395403" width="0.32" height="0.32" fill="#ffffff"/>
<rect x="25.34" y="22.356660498395403" width="0.32" height="0.32" fill="#ffffff"/>
<rect x="36.34" y="22.356660498395403" width="0.32" height="0.32" fill="#ffffff"/>
<rect x="37.34" y="22.356660498395403" width="0.32" height="0.32" fill="#ffffff"/>
<rect x="38.34" y="22.356660498395403" width="0.32" height="0.32" fill="#ffffff"/>
<rect x="39.34" y="22.356660498395403" width="0.32" height="0.32" fill="#ffffff"/>
<rect x="40.34" y="22.356660498395403" width="0.32" height="0.32" fill="#ffffff"/>
<rect x="42.34" y="22.356660498395403" width="0.32" height="0.32" fill="#ffffff"/>
<rect x="56.34" y="22.356660498395403" width="0.32" height="0.32" fill="#ffffff"/>
<rect x="57.34" y="22.356660498395403" width="0.32" height="0.32" fill="#ffffff"/>
<rect x="58.34" y="22.356660498395403" width="0.32" height="0.32" fill="#ffffff"/>
<rect x="59.34" y="22.356660498395403" width="0.32" height="0.32" fill="#ffffff"/>
<rect x="60.34" y="22.356660498395403" width="0.32" height="0.32" fill="#ffffff"/>
<rect x="20.84" y="23.22268590217984" width="0.32" height="0.32" fill="#ffffff"/>
<rect x="21.84" y="23.22268590217984" width="0.32" height="0.32" fill="#ffffff"/>
<rect x="22.84" y="23.22268590217984" width="0.32" height="0.32" fill="#ffffff"/>
<rect x="23.84" y="23.22268590217984" width="0.32" height="0.32" fill="#ffffff"/>
<rect x="24.84" y="23.22268590217984" width="0.32" height="0.32" fill="#ffffff"/>
<rect x="36.84" y="23.22268590217984" width="0.32" height="0.32" fill="#ffffff"/>
<rect x="37.84" y="23.22268590217984" width="0.32" height="0.32" fill="#ffffff"/>
<rect x="38.84" y="23.22268590217984" width="0.32" height="0.32" fill="#ffffff"/>
<rect x="39.84" y="23.22268590217984" width="0.32" height="0.32" fill="#ffffff"/>
<rect x="41.84" y="23.22268590217984" width="0.32" height="0.32" fill="#ffffff"/>
<rect x="55.84" y="23.22268590217984" width="0.32" height="0.32" fill="#ffffff"/>
<rect x="56.84" y="23.22268590217984" width="0.32" height="0.32" fill="#ffffff"/>
<rect x="57.84" y="23.22268590217984" width="0.32" height="0.32" fill="#ffffff"/>
<rect x="58.84" y="23.22268590217984" width="0.32" height="0.32" fill="#ffffff"/>
<rect x="59.84" y="23.22268590217984" width="0.32" height="0.32" fill="#ffffff"/>
<rect x="60.84" y="23.22268590217984" width="0.32" height="0.32" fill="#ffffff"/>
<rect x="20.34" y="24.08871130596428" width="0.32" height="0.32" fill="#ffffff"/>
<rect x="21.34" y="24.08871130596428" width="0.32" height="0.32" fill="#ffffff"/>
<rect x="22.34" y="24.08871130596428" width="0.32" height="0.32" fill="#ffffff"/>
<rect x="23.34" y="24.08871130596428" width="0.32" height="0.32" fill="#ffffff"/>
<rect x="36.34" y="24.08871130596428" width="0.32" height="0.32" fill="#ffffff"/>
<rect x="37.34" y="24.08871130596428" width="0.32" height="0.32" fill="#ffffff"/>
<rect x="38.34" y="24.08871130596428" width="0.32" height="0.32" fill="#ffffff"/>
<rect x="39.34" y="24.08871130596428" width="0.32" height="0.32" fill="#ffffff"/>
<rect x="55.34" y="24.08871130596428" width="0.32" height="0.32" fill="#ffffff"/>
<rect x="56.34" y="24.08871130596428" width="0.32" height="0.32" fill="#ffffff"/>
<rect x="57.34" y="24.08871130596428" width="0.32" height="0.32" fill="#ffffff"/>
<rect x="58.34" y="24.08871130596428" width="0.32" height="0.32" fill="#ffffff"/>
<rect x="59.34" y="24.08871130596428" width="0.32" height="0.32" fill="#ffffff"/>
<rect x="60.34" y="24.08871130596428" width="0.32" height="0.32" fill="#ffffff"/>
<rect x="61.34" y="24.08871130596428" width="0.32" height="0.32" fill="#ffffff"/>
<rect x="20.84" y="24.95473670974872" width="0.32" height="0.32" fill="#ffffff"/>
<rect x="21.84" y="24.95473670974872" width="0.32" height="0.32" fill="#ffffff"/>
<rect x="22.84" y="24.95473670974872" width="0.32" height="0.32" fill="#ffffff"/>
<rect x="23.84" y="24.95473670974872" width="0.32" height="0.32" fill="#ffffff"/>
<rect x="36.84" y="24.95473670974872" width="0.32" height="0.32" fill="#ffffff"/>
<rect x="37.84" y="24.95473670974872" width="0.32" height="0.32" fill="#ffffff"/>
<rect x="38.84" y="24.95473670974872" width="0.32" height="0.32" fill="#ffffff"/>
<rect x="55.84" y="24.95473670974872" width="0.32" height="0.32" fill="#ffffff"/>
<rect x="56.84" y="24.95473670974872" width="0.32" height="0.32" fill="#ffffff"/>
<rect x="57.84" y="24.95473670974872" width="0.32" height="0.32" fill="#ffffff"/>
<rect x="58.84" y="24.95473670974872" width="0.32" height="0.32" fill="#ffffff"/>
<rect x="59.84" y="24.95473670974872" width="0.32" height="0.32" fill="#ffffff"/>
<rect x="60.84" y="24.95473670974872" width="0.32" height="0.32" fill="#ffffff"/>
<rect x="61.84" y="24.95473670974872" width="0.32" height="0.32" fill="#ffffff"/>
<rect x="20.34" y="25.820762113533156" width="0.32" height="0.32" fill="#ffffff"/>
<rect x="21.34" y="25.820762113533156" width="0.32" height="0.32" fill="#ffffff"/>
<rect x="22.34" y="25.820762113533156" width="0.32" height="0.32" fill="#ffffff"/>
<rect x="23.34" y="25.820762113533156" width="0.32" height="0.32" fill="#ffffff"/>
<rect x="37.34" y="25.820762113533156" width="0.32" height="0.32" fill="#ffffff"/>
<rect x="55.34" y="25.820762113533156" width="0.32" height="0.32" fill="#ffffff"/>
<rect x="56.34" y="25.820762113533156" width="0.32" height="0.32" fill="#ffffff"/>
<rect x="59.34" y="25.820762113533156" width="0.32" height="0.32" fill="#ffffff"/>
<rect x="60.34" y="25.820762113533156" width="0.32" height="0.32" fill="#ffffff"/>
<rect x="61.34" y="25.820762113533156" width="0.32" height="0.32" fill="#ffffff"/>
<rect x="19.84" y="26.686787517317597" width="0.32" height="0.32" fill="#ffffff"/>
<rect x="20.84" y="26.686787517317597" width="0.32" height="0.32" fill="#ffffff"/>
<rect x="21.84" y="26.686787517317597" width="0.32" height="0.32" fill="#ffffff"/>
<rect x="59.84" y="26.686787517317597" width="0.32" height="0.32" fill="#ffffff"/>
<rect x="60.84" y="26.686787517317597" width="0.32" height="0.32" fill="#ffffff"/>
<rect x="20.34" y="27.552812921102035" width="0.32" height="0.32" fill="#ffffff"/>
<rect x="19.84" y="28.418838324886472" width="0.32" height="0.32" fill="#ffffff"/>
<rect x="20.84" y="28.418838324886472" width="0.32" height="0.32" fill="#ffffff"/>
<rect x="64.84" y="28.418838324886472" width="0.32" height="0.32" fill="#ffffff"/>
<rect x="19.34" y="29.284863728670913" width="0.32" height="0.32" fill="#ffffff"/>
<rect x="20.34" y="29.284863728670913" width="0.32" height="0.32" fill="#ffffff"/>
<rect x="19.84" y="30.15088913245535" width="0.32" height="0.32" fill="#ffffff"/>
<rect x="20.34" y="31.01691453623979" width="0.32" height="0.32" fill="#ffffff"/>
</g>
</g>
</svg>
